<svg xmlns="http://www.w3.org/2000/svg" version="1.1" viewBox="0 0 123.5 52.5"><g fill="#fff"><path d="M64 2.2c-1.2.7-2.3 1.5-3.2 2.5-1 1-1.7 2.3-2.3 3.5-1.3 2.6-2.1 5.5-2.8 8.3-.6 2.3-1.1 4.8-2.6 6.7-1.4 1.8-3.5 2.9-5.7 3.5-2.2.6-4.6.5-6.9.6h.1c-.5-.1-.9-.2-1.3-.3l-.1-1c-.2-2.2-.3-6.7-.3-13.6 0-4.4.2-7.5.5-9.4.1-.4.3-.6.6-.7.3-.1 1-.2 2-.2 8.3 0 12.8 2.7 13.6 9.3.7-2.2 1.5-4.5 2.1-5.8-1.1-1.5-2.4-2.4-4.3-3.4C50.8.9 47.9.3 44.6.3H37c-2 0-3.9 0-5.7-.1l-.1 1.2c1.4.4 2.3.6 2.8.9.5.2.7.6.8 1.1l.1.9c.2 1.8.3 6.2.3 13.3 0 4.4-.1 7.4-.3 9.1-.1.5-.3.8-.9 1.1-.5.2-1.5.5-2.9.8l.1 1.2c1.8-.1 3.8-.1 6-.1H44c2.6 0 4.8-.4 6.7-1.1.4-.1.8-.2 1.3-.4 2.2-.9 4.1-2.5 5.6-4.5 1.4-2 2.4-4.2 3-6.5.9-3.2 1.3-6.6 2.9-9.5.8-1.5 2-2.8 3.3-3.9C68.3 2.5 70.3 2 72.5 2c5.1 0 8.3 1.9 9.5 5.6l1.2-.6c-.3-1.9-.5-3.9-.5-6V.4c-.7.2-1.4.3-2 .3-.6 0-1.8-.1-3.4-.3-1.7-.3-3.2-.4-4.6-.4H71.8c-2.7 0-5.4.8-7.8 2.2m59 43.6h-13.6c-.3 0-.6-.1-.9-.2-.3-.1-.5-.3-.7-.5-.2-.2-.4-.4-.5-.7-.1-.3-.2-.6-.2-.8v-5.2h1.5v5.2c0 .2.1.3.2.5.1.1.3.2.5.2H123v1.5zm-16.6-3.7c0 .5-.1 1-.3 1.4-.2.4-.5.8-.8 1.2-.4.3-.8.6-1.2.8-.5.2-1 .3-1.5.3h-9.7c-.5 0-1-.1-1.4-.3-.5-.2-.9-.4-1.2-.8-.4-.3-.6-.7-.8-1.2-.2-.4-.3-.9-.3-1.4 0-.5.1-1 .3-1.4.2-.5.5-.9.8-1.2.4-.3.8-.6 1.2-.8.5-.2.9-.3 1.4-.3h9.7c.5 0 1 .1 1.4.3.5.2.9.5 1.2.8.4.3.6.7.8 1.2.3.4.4.9.4 1.4zm-1.5 0c0-.2 0-.5-.1-.7-.1-.2-.2-.5-.4-.7-.2-.2-.4-.4-.7-.5-.3-.1-.6-.2-1-.2H93c-.3 0-.6.1-.9.2-.3.1-.5.3-.7.5-.2.2-.4.4-.5.7-.1.3-.2.6-.2.9 0 .2 0 .5.1.7.1.2.2.5.4.7.2.2.4.4.7.5.3.1.6.2 1 .2h9.7c.3 0 .6-.1.9-.2.3-.1.5-.3.7-.4.2-.2.4-.4.5-.7.1-.4.2-.7.2-1zm-16.7 3.7h-1.6v-2.3c0-.2-.1-.3-.2-.5s-.3-.2-.5-.2h-12v2.9h-1.5v-7.4h1.5v2.9h8.7l3.1-3.1 1.1 1-2.1 2.1H86c.2 0 .5 0 .7.1.2.1.5.2.8.4.3.2.5.5.6.8.1.3.2.6.2.9v2.4zM71 45l-1 1-3.3-3.2h-9.5c-.2 0-.4.1-.5.2-.1.1-.2.3-.2.5v2.2H55v-2.3c0-.3.1-.6.2-.8.1-.3.3-.5.5-.7.2-.2.4-.4.7-.5.3-.1.5-.2.8-.2h11.4c.2 0 .4-.1.5-.2.1-.1.2-.3.2-.5s-.1-.3-.2-.5c-.1-.1-.3-.2-.5-.2H55v-1.5h13.6c.3 0 .6.1.9.2.3.1.5.3.7.5.2.2.4.4.5.7.1.3.2.6.2.9 0 .2 0 .4-.1.6-.1.2-.2.4-.4.7l-.6.6c-.3.2-.6.3-.9.3L71 45zm-19-4.4v-2.2h1.5V40l-1.5.6zm0 5.2v-4l1.5-.6v4.6H52zm-1.5 0H49v-4.6l-5.7 4.6-6.3-4.7v4.6h-1.5V38l7.8 5.8 7.3-5.8v7.8zm-16.5 0H21.9c-.5 0-1-.1-1.5-.3-.5-.2-.9-.4-1.2-.8-.4-.3-.6-.7-.8-1.2-.2-.5-.3-.9-.3-1.4 0-.5.1-1 .3-1.4.2-.5.5-.8.8-1.2.4-.3.8-.6 1.2-.8.5-.2 1-.3 1.5-.3H34v1.5H21.9c-.5 0-.9.1-1.3.4-.4.3-.7.6-.8 1h12v1.5h-12c.1.3.3.6.6.8s.5.4.8.5c.3.1.5.1.7.1H34v1.6zM1.3 39.9v4.3H13c.2 0 .4 0 .7-.1.3-.1.5-.2.8-.4.3-.2.5-.4.6-.7.1-.3.2-.6.2-.9s-.1-.6-.2-.8c-.1-.3-.3-.5-.5-.7-.2-.2-.5-.3-.7-.5-.3-.1-.6-.2-.9-.2H1.3zM1 45.8H0v-7.4h13c.5 0 1 .1 1.5.3.5.2.9.5 1.2.8.4.3.6.7.8 1.2.2.5.3.9.3 1.4 0 .5-.1 1-.3 1.4-.2.5-.5.8-.8 1.2-.4.3-.8.6-1.2.8-.5.2-1 .3-1.5.3H1zm85.2-29.3c-1.8.1-3.5.1-5 .1-1.6 0-3.3 0-5-.1l-.2 1.2c1.4.3 2.3.5 2.7.7.5.2.7.6.8 1.1l.3 6.9c-1.9 1-4.4 1.5-7.6 1.5-1.9 0-3.5-.4-5-1.2-1.4-.8-2.6-1.8-3.4-3.1-1.3-2.1-1.7-3.7-1.9-6.4l-2.6 6.9c.6 1.1.8 1.2 1.7 2.1 2.7 2.5 6.4 3.8 11.1 3.8 3.3 0 7.1-.9 11.6-2.8l.3-7.7c0-.4 0-.7.1-.9 0 0 .1-.1.2-.3.1-.1.2-.2.4-.3.2 0 .4-.1.7-.2.3-.1.6-.2 1-.3l-.2-1zM80.4 50.7h43.1v.9H80.4zM0 50.7h36.9v.9H0z"/><path d="M53.1 51.8c-.1-.1-.2-.1-.3-.2-.1-.1-.1-.2-.2-.3 0-.1-.1-.2-.1-.3 0-.1 0-.2.1-.4 0-.1.1-.2.2-.3.1-.1.2-.1.3-.2.1 0 .2-.1.4-.1h4c.2 0 .3 0 .4.1.1.1.2.1.3.2.1.1.1.2.2.3 0 .1.1.2.1.3 0 .1 0 .2-.1.4-.1.1-.1.2-.2.3-.1.1-.2.1-.3.2-.1 0-.2.1-.4.1h-4c-.1 0-.3-.1-.4-.1m.4.7h4c.2 0 .4 0 .6-.1.2-.1.4-.2.5-.3.1-.1.3-.3.3-.5.1-.2.1-.4.1-.6 0-.2 0-.4-.1-.6-.1-.2-.2-.4-.3-.5-.1-.1-.3-.2-.5-.3-.2-.1-.4-.1-.6-.1h-4c-.2 0-.4 0-.6.1-.2.1-.4.2-.5.3-.1.1-.3.3-.3.5-.1.2-.1.4-.1.6 0 .2 0 .4.1.6.1.2.2.3.3.5.1.1.3.2.5.3.2.1.4.1.6.1zm6.6-2.4v1.8H65c.1 0 .2 0 .2-.1.1-.1.1-.1.1-.2s0-.2-.1-.2c-.1-.1-.1-.1-.2-.1h-4.2v-.6h4.3c.1 0 .2 0 .2-.1.1-.1.1-.1.1-.2s0-.1-.1-.2-.1-.1-.2-.1h-5zm8 1.6V51h4.3c0-.1 0-.2-.1-.4 0-.1-.1-.2-.2-.3-.1-.1-.2-.1-.3-.2-.1 0-.2-.1-.4-.1H68c-.2 0-.3 0-.4.1-.1.1-.2.1-.3.2-.1.1-.1.2-.2.3 0 .1-.1.2-.1.3v1.5h-.6V51c0-.2 0-.4.1-.6.1-.2.2-.4.3-.5.1-.1.3-.2.5-.3.2-.1.4-.1.6-.1h3.4c.2 0 .4 0 .6.1.2.1.4.2.5.3.1.1.3.3.3.5.3.2.3.4.3.6v1.5h-.6v-.8h-4.3zm10.8.8h-4.5c-.1 0-.2 0-.4-.1-.1 0-.2-.1-.3-.2-.1-.1-.2-.2-.2-.3 0-.1-.1-.2-.1-.3v-2.1h.6v2.1c0 .1 0 .1.1.2s.1.1.2.1h4.5v.6zM39.2 51c0 .2 0 .4.1.6.1.2.2.3.3.5.1.1.3.2.5.3.2.1.4.1.6.1h4c.1 0 .2 0 .4-.1.1-.1.2-.1.3-.2.1-.1.1-.2.2-.3 0-.1.1-.2.1-.3v-.9h-4.5v.6H45v.3c0 .1 0 .1-.1.2s-.1.1-.2.1h-4c-.1 0-.2 0-.4-.1-.1-.1-.2-.1-.3-.2-.1-.1-.1-.2-.2-.3V51c0-.1 0-.2.1-.4.1-.1.1-.2.2-.3.1-.1.2-.1.3-.2h5.2v-.6h-4.9c-.2 0-.4 0-.6.1-.2.1-.4.2-.5.3-.1.1-.3.3-.3.5-.1.2-.1.3-.1.6zm20.3 1.5H65.4c.1 0 .2-.1.3-.2.1-.1.2-.2.2-.3.1-.1.1-.3.1-.4v-.3c0-.1-.1-.2-.2-.3.1-.1.1-.2.2-.3v-.3c0-.2 0-.3-.1-.4-.1-.1-.1-.2-.2-.3-.1-.1-.2-.1-.3-.2H59.5v3zm-7.7 0h-4.5c-.1 0-.2 0-.4-.1-.1 0-.2-.1-.3-.2-.1-.1-.2-.2-.2-.3 0-.1-.1-.2-.1-.3v-2.1h.7v2.1c0 .1 0 .1.1.2s.1.1.2.1h4.5v.6z"/></g></svg>