<svg xmlns="http://www.w3.org/2000/svg" viewBox="0 0 288.1 408.8"><path d="M133.7 408.8c-9.5-1.8-19.1-3.1-28.4-5.6-24.9-6.6-46-19.8-63.8-38.2-19.8-20.4-32.7-44.8-38.3-72.6-2.1-10.7-2.9-21.9-3-32.9-.4-36.7 0-73.4-.2-110.1-.1-35.4 10.1-67.3 32.2-95 20.4-25.5 46.4-42.7 78.4-50.2 42.8-10 82.2-2 117.8 23.8 25.8 18.7 43.1 43.8 52.9 74 4.9 15.3 6.8 31.1 6.8 47.1v111.3c0 40.5-13.4 75.8-41.7 105-22.4 23.1-49.7 37.2-81.8 41.9-3.4.5-6.8 1.1-10.2 1.6-6.9-.1-13.8-.1-20.7-.1zm126.9-204.1c.1 0 .1 0 0 0 .1-19 .1-38 .1-57.1 0-31.9-10.2-60.2-32.3-83.3-30.4-31.7-67.9-43.8-110.7-33.7-53.5 12.7-89.5 58.8-90.2 113.8-.5 39.9-.3 79.8 0 119.7.2 29.9 10.1 56.5 30.4 78.4 33.2 35.7 73.9 47.5 120.6 33.6 47.9-14.2 81.4-59.8 82.1-109.6.3-20.6 0-41.2 0-61.8z"/><path d="M130.5 148.9c0-7.7-.1-15.4 0-23.1.1-7.8 5.9-13.8 13.4-13.9 7.7-.1 13.6 6 13.7 14 .1 15.5.1 56.1 0 71.6 0 7.9-5.9 13.8-13.4 13.9-7.7.1-13.6-6-13.7-14-.1-7.8 0-40.7 0-48.5z"/></svg>