<svg width="0" height="0" class="hidden">
    <symbol xmlns="http://www.w3.org/2000/svg" viewBox="0 0 612 612" id="facebook"><path d="M612 306C612 137 475 0 306 0S0 137 0 306s137 306 306 306 306-137 306-306zm-584.2 0C27.8 152.4 152.4 27.8 306 27.8S584.2 152.3 584.2 306c0 153.6-124.5 278.2-278.2 278.2-153.6 0-278.2-124.6-278.2-278.2z"/><path d="M317.7 482.6V306H376l9.2-58.5h-67.5v-29.3c0-15.3 5-29.8 26.9-29.8h43.8V130h-62.2c-52.3 0-66.6 34.4-66.6 82.2v35.4h-35.9V306h35.9v176.6h58.1z"/></symbol>
    <symbol xmlns="http://www.w3.org/2000/svg" viewBox="0 0 612 612" id="instagram"><path d="M612 306C612 137 475 0 306 0S0 137 0 306s137 306 306 306 306-137 306-306zm-584.2 0C27.8 152.4 152.4 27.8 306 27.8S584.2 152.3 584.2 306c0 153.6-124.5 278.2-278.2 278.2-153.6 0-278.2-124.6-278.2-278.2z"/><path d="M373.6 159H238.4c-43.8 0-79.4 35.6-79.4 79.4v135.1c0 43.8 35.6 79.4 79.4 79.4h135.1c43.8 0 79.4-35.6 79.4-79.4V238.4c.1-43.8-35.5-79.4-79.3-79.4zm55.6 214.6c0 30.7-25 55.7-55.7 55.7H238.4c-30.7 0-55.7-25-55.7-55.7V238.4c0-30.7 25-55.7 55.7-55.7h135.1c30.7 0 55.7 25 55.7 55.7v135.2z"/><path d="M371.8 295.7c-2.1-14.1-8.5-26.9-18.6-36.9-10.1-10.1-22.9-16.5-36.9-18.6-6.4-1-12.9-1-19.3 0-17.4 2.6-32.8 11.8-43.3 25.9-10.5 14.1-14.8 31.5-12.3 48.9 2.6 17.4 11.8 32.8 25.9 43.3 11.5 8.5 25.1 13 39.1 13 3.3 0 6.5-.2 9.8-.7 17.4-2.6 32.8-11.8 43.3-25.9 10.5-14.2 14.9-31.5 12.3-49zm-59 51.4c-11.1 1.7-22.3-1.1-31.3-7.8-9-6.7-14.9-16.5-16.6-27.7-1.7-11.1 1.1-22.3 7.8-31.3 6.7-9 16.5-14.9 27.7-16.6 2.1-.3 4.1-.5 6.2-.5 2.1 0 4.1.2 6.2.5 18.5 2.7 32.8 17 35.5 35.5 3.4 23-12.5 44.5-35.5 47.9zM388.7 223.3c-2.2-2.2-5.3-3.5-8.4-3.5s-6.2 1.3-8.4 3.5-3.5 5.3-3.5 8.4c0 3.1 1.3 6.2 3.5 8.4s5.3 3.5 8.4 3.5 6.2-1.3 8.4-3.5 3.5-5.3 3.5-8.4-1.3-6.2-3.5-8.4z"/></symbol>
    <symbol xmlns="http://www.w3.org/2000/svg" viewBox="123.3 0 595.3 595.2" id="phone"><path d="m703 459.2-120.5-80.3c-15.3-10.1-35.8-6.8-47.1 7.6l-35.1 45.1c-4.5 5.9-12.7 7.7-19.2 4l-6.7-3.7c-22.1-12.1-49.7-27.1-105.1-82.6-55.5-55.5-70.5-83.1-82.6-105.1l-3.7-6.7c-3.7-6.5-2-14.8 4-19.3l45.1-35.1c14.4-11.3 17.8-31.8 7.7-47.1L259.3 15.6C249 .1 228.2-4.6 212.2 5l-50.4 30.3c-15.8 9.3-27.4 24.4-32.4 42.1-18.1 66.1-4.5 180.2 163.6 348.3 133.7 133.7 233.2 169.6 301.6 169.6 15.7.1 31.4-2 46.6-6.1 17.7-5 32.8-16.6 42.1-32.4l30.3-50.4c9.6-16 4.9-36.8-10.6-47.2zm-6.5 37-30.2 50.4c-6.7 11.4-17.5 19.8-30.3 23.5-61 16.8-167.6 2.9-329-158.5-161.3-161.3-175.2-268-158.5-329 3.6-12.8 12-23.6 23.5-30.3l50.4-30.2c7-4.2 16-2.2 20.5 4.6l43.6 65.5 36.6 54.9c4.4 6.6 2.9 15.5-3.3 20.4l-45.1 35.1c-13.7 10.5-17.6 29.5-9.2 44.6l3.6 6.5c12.7 23.3 28.4 52.2 86 109.7 57.5 57.5 86.5 73.3 109.7 86l6.5 3.6c15.1 8.4 34.1 4.5 44.6-9.2l35.1-45.1c4.9-6.3 13.8-7.7 20.4-3.3l120.5 80.4c6.7 4.5 8.8 13.5 4.6 20.4zM460.6 99.3c93.1.1 168.5 75.5 168.6 168.6 0 5.5 4.4 9.9 9.9 9.9s9.9-4.4 9.9-9.9c-.1-104-84.4-188.4-188.5-188.5-5.5 0-9.9 4.4-9.9 9.9.1 5.5 4.5 10 10 10z"/><path d="M460.6 158.8c60.2.1 109 48.9 109.1 109.1 0 5.5 4.4 9.9 9.9 9.9s9.9-4.4 9.9-9.9c-.1-71.2-57.8-128.9-129-129-5.5 0-9.9 4.4-9.9 9.9.1 5.5 4.5 10 10 10z"/><path d="M460.6 218.3c27.4 0 49.6 22.2 49.6 49.6 0 5.5 4.4 9.9 9.9 9.9s9.9-4.4 9.9-9.9c0-38.3-31.1-69.4-69.4-69.4-5.5 0-9.9 4.4-9.9 9.9s4.4 9.9 9.9 9.9z"/></symbol>
    <symbol xmlns="http://www.w3.org/2000/svg" viewBox="0 0 251.1 472.6" id="angle_left"><path d="M237.2 0c4.6 4.9 9.1 9.9 13.7 14.8C177 88.6 103.2 162.4 29.5 236.1l221.7 221.7-14.8 14.8C158.1 394.4 79.2 315.4 0 236.2c.6-.6 1.8-2 3.1-3.2L231.9 4.2c1.3-1.3 2.3-2.8 3.4-4.2h1.9z"/></symbol>
</svg>