<svg width="0" height="0" class="hidden">
    <symbol xmlns="http://www.w3.org/2000/svg" viewBox="0 0 612 612" id="facebook"><path d="M612 306C612 137 475 0 306 0S0 137 0 306s137 306 306 306 306-137 306-306zm-584.2 0C27.8 152.4 152.4 27.8 306 27.8S584.2 152.3 584.2 306c0 153.6-124.5 278.2-278.2 278.2-153.6 0-278.2-124.6-278.2-278.2z"/><path d="M317.7 482.6V306H376l9.2-58.5h-67.5v-29.3c0-15.3 5-29.8 26.9-29.8h43.8V130h-62.2c-52.3 0-66.6 34.4-66.6 82.2v35.4h-35.9V306h35.9v176.6h58.1z"/></symbol>
    <symbol xmlns="http://www.w3.org/2000/svg" viewBox="0 0 612 612" id="instagram"><path d="M612 306C612 137 475 0 306 0S0 137 0 306s137 306 306 306 306-137 306-306zm-584.2 0C27.8 152.4 152.4 27.8 306 27.8S584.2 152.3 584.2 306c0 153.6-124.5 278.2-278.2 278.2-153.6 0-278.2-124.6-278.2-278.2z"/><path d="M373.6 159H238.4c-43.8 0-79.4 35.6-79.4 79.4v135.1c0 43.8 35.6 79.4 79.4 79.4h135.1c43.8 0 79.4-35.6 79.4-79.4V238.4c.1-43.8-35.5-79.4-79.3-79.4zm55.6 214.6c0 30.7-25 55.7-55.7 55.7H238.4c-30.7 0-55.7-25-55.7-55.7V238.4c0-30.7 25-55.7 55.7-55.7h135.1c30.7 0 55.7 25 55.7 55.7v135.2z"/><path d="M371.8 295.7c-2.1-14.1-8.5-26.9-18.6-36.9-10.1-10.1-22.9-16.5-36.9-18.6-6.4-1-12.9-1-19.3 0-17.4 2.6-32.8 11.8-43.3 25.9-10.5 14.1-14.8 31.5-12.3 48.9 2.6 17.4 11.8 32.8 25.9 43.3 11.5 8.5 25.1 13 39.1 13 3.3 0 6.5-.2 9.8-.7 17.4-2.6 32.8-11.8 43.3-25.9 10.5-14.2 14.9-31.5 12.3-49zm-59 51.4c-11.1 1.7-22.3-1.1-31.3-7.8-9-6.7-14.9-16.5-16.6-27.7-1.7-11.1 1.1-22.3 7.8-31.3 6.7-9 16.5-14.9 27.7-16.6 2.1-.3 4.1-.5 6.2-.5 2.1 0 4.1.2 6.2.5 18.5 2.7 32.8 17 35.5 35.5 3.4 23-12.5 44.5-35.5 47.9zM388.7 223.3c-2.2-2.2-5.3-3.5-8.4-3.5s-6.2 1.3-8.4 3.5-3.5 5.3-3.5 8.4c0 3.1 1.3 6.2 3.5 8.4s5.3 3.5 8.4 3.5 6.2-1.3 8.4-3.5 3.5-5.3 3.5-8.4-1.3-6.2-3.5-8.4z"/></symbol>
</svg>