<svg xmlns="http://www.w3.org/2000/svg" viewBox="0 0 287 335.4"><path d="M40.2 0C48-.2 55 2.4 61.7 6.3c47.6 27.6 95.3 55.2 142.9 82.8 20.3 11.7 40.6 23.4 60.8 35.3 12.5 7.4 19.9 18.4 21.3 32.9 1.8 18.2-5.3 32.4-20.6 42.2-28.9 18.6-58.1 36.8-87.1 55.2-39.1 24.7-78.1 49.5-117.2 74.1-22.6 14.2-51.2 4.3-59.6-20.6-1.3-3.8-2.1-8-2.1-12C0 210.8 0 125.3 0 39.9 0 17.9 18.2.1 40.2 0zM24 168.1c0 41.7 0 83.3.1 125 0 3.1.6 6.5 1.8 9.4 3 6.9 12.8 12.4 23.8 5.4 53.2-33.8 106.7-67.3 160.1-100.9 14.6-9.2 29.1-18.3 43.7-27.5 8.3-5.2 11.8-13.5 9.4-22.4-1.6-6.2-5.8-10.2-11.2-13.3-42.4-24.4-84.8-49-127.2-73.4-25.1-14.5-50-28.9-74.9-43.3-3.6-2.1-7.3-3.8-11.7-2.9C29.1 26 24 32.4 24 41.9c-.1 42.1 0 84.1 0 126.2z"/></svg>